<?xml version="1.0" encoding="UTF-8"?>
<svg width="128" height="32" viewBox="0 0 128 32" fill="none" xmlns="http://www.w3.org/2000/svg" role="img" aria-label="PayPal">
  <title>PayPal</title>
  <rect width="128" height="32" fill="none"/>
  <g fill="#FFFFFF">
    <path d="M8 24h4.8c5.2 0 8.5-3 8.5-7.4 0-3.2-2.5-5.6-6.3-5.6H11l.9-5H7l-3 18h4zm5.3-12c1.8 0 3 .9 3 2.3 0 2.2-1.8 3.7-4.6 3.7H9.5l.9-6h2.9z"/>
    <path d="M30.5 11c-4 0-7.2 3.2-7.2 7.3 0 3.3 2.3 5.8 5.6 5.8 1.9 0 3.6-.8 4.6-2.2l-.3 1.9h4l2.1-12.4h-4l-.2 1.1c-1.1-1-2.6-1.5-4.6-1.5zm1.1 3c1.9 0 3.1 1.1 3.1 2.8 0 2.4-1.9 4.1-4.2 4.1-1.7 0-2.9-1.1-2.9-2.8 0-2.5 1.9-4.1 4-4.1z"/>
    <path d="M51.2 11c-4 0-7.2 3.2-7.2 7.3 0 3.3 2.3 5.8 5.6 5.8 1.9 0 3.6-.8 4.6-2.2l-.3 1.9h4l2.1-12.4h-4l-.2 1.1c-1.1-1-2.6-1.5-4.6-1.5zm1.1 3c1.9 0 3.1 1.1 3.1 2.8 0 2.4-1.9 4.1-4.2 4.1-1.7 0-2.9-1.1-2.9-2.8 0-2.5 1.9-4.1 4-4.1z"/>
    <path d="M71.6 11c-2.3 0-4.2.9-5.4 2.5l.3-2h-4l-2.1 12.4h4l1.1-6.7c.6-2 2.1-3.2 4.1-3.2 1.7 0 2.7.9 2.7 2.4 0 .4-.1.9-.2 1.6l-1.1 5.9h4l1.2-6.4c.2-.9.3-1.6.3-2.2 0-2.8-2.1-4.3-4.9-4.3z"/>
    <path d="M87.7 11c-1.9 0-3.5.7-4.6 2l.3-1.8h-4l-2.1 12.4h4l1.2-6.9c.6-1.8 2-2.8 3.9-2.8 1.5 0 2.3.7 2.3 2 0 .3-.1.8-.2 1.3l-1.2 6.4h4l1.3-6.9c.1-.6.2-1.1.2-1.6 0-2.7-2-4.1-4.5-4.1z"/>
    <path d="M105.6 11c-4.2 0-7.4 3.2-7.4 7.3 0 3.3 2.3 5.8 5.7 5.8 1.9 0 3.7-.8 4.7-2.2l-.3 1.9h4l2.1-12.4h-4l-.2 1.1c-1.1-1-2.7-1.5-4.6-1.5zm1.1 3c2 0 3.2 1.1 3.2 2.8 0 2.4-1.9 4.1-4.3 4.1-1.7 0-3-1.1-3-2.8 0-2.5 1.9-4.1 4.1-4.1z"/>
  </g>
</svg>
